<svg width="438" height="309" viewBox="0 0 438 309" fill="none" xmlns="http://www.w3.org/2000/svg">
<g filter="url(#filter0_d_60_774)">
<g clip-path="url(#clip0_60_774)">
<path fill-rule="evenodd" clip-rule="evenodd" d="M-130.833 17.8654C-151.83 19.6769 -172.895 21.4943 -194.063 24.6614L-194.137 24.1669C-172.953 20.9973 -151.864 19.1779 -130.861 17.3659C-122.736 16.665 -114.625 15.9652 -106.526 15.1888C-77.4821 12.4046 -48.5847 8.63448 -19.7648 0.297868C34.6635 -15.4465 88.1807 -29.7196 143.362 -43.2387C197.246 -56.4394 245.366 -65.4817 300.148 -69.7395L300.169 -69.7411C322.268 -71.4591 345.011 -73.2269 366.168 -80.7478C372.386 -82.9583 378.217 -85.2971 383.991 -87.6131C386.279 -88.5306 388.557 -89.4446 390.848 -90.3457C398.915 -93.5195 407.118 -96.5286 416.331 -98.9502L416.458 -98.4666C407.273 -96.0523 399.091 -93.0515 391.031 -89.8804C388.747 -88.9819 386.472 -88.0694 384.186 -87.1526C378.409 -84.8353 372.564 -82.4908 366.336 -80.2766L366.252 -80.5117L366.336 -80.2766C345.116 -72.7336 322.318 -70.9614 300.24 -69.2452L300.187 -69.241C245.44 -64.9859 197.348 -55.9495 143.481 -42.753C88.3063 -29.2356 34.7958 -14.9642 -19.6258 0.778176C-48.4911 9.12792 -77.4255 12.9014 -106.478 15.6865C-114.587 16.4639 -122.705 17.1642 -130.833 17.8654Z" fill="#1F2937" fill-opacity="0.5"/>
<path fill-rule="evenodd" clip-rule="evenodd" d="M303.044 -65.1157C301.454 -65.0986 299.884 -65.0817 298.336 -65.061C292.954 -64.9886 287.591 -65.0086 282.233 -65.0285C265.819 -65.0897 249.457 -65.1507 232.748 -62.5553C212.472 -59.4061 192.133 -54.1142 172.046 -48.8878C165.583 -47.2064 159.147 -45.5318 152.747 -43.9375C94.9097 -29.5271 41.0608 -14.3785 -15.0922 4.34561C-44.3331 14.096 -72.9016 17.192 -101.608 18.8076C-109.925 19.2756 -118.251 19.6194 -126.608 19.9644C-147.108 20.8108 -167.794 21.665 -188.981 24.3795L-189.044 23.8835C-167.835 21.1661 -147.115 20.3106 -126.606 19.4638C-118.254 19.1189 -109.937 18.7755 -101.636 18.3084C-72.9451 16.6937 -44.4285 13.6008 -15.2504 3.87128C40.9175 -14.8578 94.7792 -30.0098 152.626 -44.4227C159.015 -46.0141 165.444 -47.6868 171.901 -49.3671C191.995 -54.595 212.368 -59.896 232.672 -63.0494C249.423 -65.6514 265.841 -65.5901 282.264 -65.5288C287.615 -65.5088 292.966 -65.4888 298.33 -65.5609C299.872 -65.5816 301.436 -65.5985 303.018 -65.6156C323.265 -65.8341 346.502 -66.085 365.075 -74.7117C371.308 -77.6077 376.302 -80.5541 381.146 -83.4127C382.757 -84.3631 384.351 -85.3038 385.969 -86.2297C392.451 -89.9394 399.291 -93.3975 409.033 -96.2479L409.173 -95.768C399.481 -92.9323 392.679 -89.4936 386.217 -85.7958C384.61 -84.8757 383.022 -83.9386 381.415 -82.9904C376.565 -80.1289 371.543 -77.1655 365.285 -74.2582L365.18 -74.485L365.285 -74.2582C346.61 -65.5837 323.265 -65.3329 303.044 -65.1157Z" fill="#1F2937" fill-opacity="0.5"/>
<path fill-rule="evenodd" clip-rule="evenodd" d="M302.644 -61.0585C300.443 -61.1782 298.32 -61.2936 296.295 -61.3882L296.307 -61.638L296.295 -61.3882C292.226 -61.5787 288.19 -61.8141 284.171 -62.0485C265.977 -63.1096 248.129 -64.1506 229.076 -60.9082C208.821 -57.4608 188.471 -52.0334 168.345 -46.6658C160.561 -44.5895 152.809 -42.5222 145.11 -40.5819C135.171 -38.0767 125.098 -35.7882 115.014 -33.4971C97.8119 -29.5888 80.5755 -25.6728 63.9099 -20.6598C46.8944 -15.5427 30.6448 -8.96906 14.3906 -2.39362C6.13313 0.946856 -2.12556 4.28781 -10.4864 7.43853C-38.4919 17.9931 -62.4427 23.3013 -92.2861 23.2441C-100.699 23.2283 -108.974 23.0624 -117.194 22.8977C-139.461 22.4514 -161.332 22.013 -184.496 24.5865L-184.551 24.0895C-161.352 21.5122 -139.434 21.9515 -117.155 22.3981C-108.942 22.5627 -100.679 22.7283 -92.2851 22.7441L-92.2856 22.9941L-92.2851 22.7441C-62.5138 22.8012 -38.6234 17.5084 -10.6628 6.97066C-2.32608 3.82905 5.9209 0.492936 14.1731 -2.84529C30.4412 -9.42612 46.7295 -16.0152 63.7659 -21.1386C80.4444 -26.1555 97.7149 -30.0795 114.931 -33.9913C125.012 -36.2817 135.074 -38.5678 144.988 -41.0667C152.672 -43.0033 160.415 -45.0683 168.194 -47.1431C188.328 -52.513 208.712 -57.9496 228.992 -61.4011C248.106 -64.654 266.022 -63.6086 284.219 -62.5468C288.233 -62.3126 292.261 -62.0776 296.319 -61.8877C298.35 -61.7928 300.479 -61.6771 302.683 -61.5572C311.305 -61.0885 321.089 -60.5567 330.784 -60.9566C342.959 -61.4589 354.953 -63.4305 364.288 -68.8184C370.749 -72.5484 374.677 -76.0489 378.395 -79.3626C379.426 -80.2821 380.442 -81.1872 381.491 -82.0789C386.327 -86.1892 391.835 -89.972 402.815 -93.4623L402.967 -92.9858C392.055 -89.5173 386.605 -85.769 381.815 -81.6979C380.778 -80.8162 379.769 -79.9175 378.742 -79.0019C375.02 -75.6838 371.048 -72.1433 364.538 -68.3854C355.098 -62.9366 343.006 -60.9604 330.804 -60.4571C321.083 -60.056 311.268 -60.5897 302.644 -61.0585Z" fill="#1F2937" fill-opacity="0.5"/>
<path fill-rule="evenodd" clip-rule="evenodd" d="M302.79 -57.2235C300.956 -57.4121 299.214 -57.5912 297.585 -57.7468C293.569 -58.1304 289.609 -58.5638 285.677 -58.994C267.651 -60.9667 250.224 -62.8738 230.73 -59.6182C210.312 -56.2082 189.751 -50.6432 169.452 -45.149C161.596 -43.0229 153.78 -40.9075 146.027 -38.9315C136.149 -36.4147 126.099 -34.1358 116.03 -31.8527C98.5844 -27.897 81.0829 -23.9284 64.321 -18.6873C47.1992 -13.3337 31.1154 -6.18297 15.0305 0.968259C6.86204 4.59991 -1.3067 8.23169 -9.61179 11.6283C-37.3444 22.9708 -60.8665 28.4498 -90.7004 27.2256C-99.0216 26.8839 -107.123 26.3595 -115.141 25.8405C-136.732 24.4428 -157.723 23.0841 -180.792 25.4366L-180.842 24.9391C-157.729 22.5821 -136.678 23.9448 -115.073 25.3434C-107.063 25.8619 -98.9761 26.3854 -90.6799 26.726C-60.9339 27.9466 -37.484 22.4877 -9.80108 11.1655C-1.52585 7.78111 6.62855 4.15589 14.7906 0.527284C30.8924 -6.63116 47.024 -13.8028 64.1718 -19.1645C80.949 -24.4105 98.49 -28.3882 115.952 -32.348C126.016 -34.6302 136.053 -36.9064 145.903 -39.416C153.641 -41.3879 161.447 -43.5008 169.297 -45.6254C189.606 -51.122 210.204 -56.697 230.648 -60.1114C250.216 -63.3794 267.722 -61.4629 285.753 -59.4891C289.679 -59.0593 293.63 -58.6268 297.633 -58.2445C299.268 -58.0883 301.014 -57.9088 302.851 -57.72C311.263 -56.8553 321.571 -55.7957 331.78 -55.8913C344.224 -56.0079 356.463 -57.8426 364.907 -63.7959C371.329 -68.324 373.938 -72.1555 376.337 -75.6787C376.947 -76.5758 377.545 -77.4529 378.188 -78.3164C379.776 -80.4491 381.637 -82.4853 384.657 -84.5023C387.673 -86.5165 391.837 -88.506 398.026 -90.5586L398.184 -90.084C392.02 -88.0399 387.901 -86.0675 384.935 -84.0865C381.972 -82.1081 380.151 -80.1156 378.589 -78.0177C377.958 -77.1703 377.368 -76.3035 376.761 -75.4126C374.358 -71.8814 371.696 -67.9714 365.195 -63.3872L365.051 -63.5916L365.195 -63.3872C356.62 -57.3416 344.249 -55.5081 331.784 -55.3913C321.545 -55.2954 311.202 -56.3587 302.79 -57.2235Z" fill="#1F2937" fill-opacity="0.5"/>
<path fill-rule="evenodd" clip-rule="evenodd" d="M341.07 -51.5151C329.484 -50.5291 317.361 -51.6048 308.535 -52.6929C302.944 -53.3822 297.435 -54.2799 291.944 -55.1981C291.292 -55.307 290.641 -55.4163 289.99 -55.5255C285.152 -56.3369 280.322 -57.1469 275.451 -57.8282C264.398 -59.3739 253.143 -60.2552 241.139 -58.9827C220.059 -56.7482 198.166 -50.6699 176.996 -44.792C169.827 -42.8017 162.742 -40.8344 155.798 -39.0471C144.216 -36.0657 132.482 -33.3461 120.741 -30.625C103.792 -26.6968 86.8302 -22.7655 70.2933 -18.0391C51.1374 -12.5643 33.6083 -4.21327 16.1165 4.12001C9.10941 7.45829 2.10826 10.7937 -4.9891 13.9402C-32.6955 26.2253 -56.9509 33.1945 -87.3955 31.2696C-96.7012 30.6809 -105.609 29.7828 -114.389 28.8975C-135.132 26.806 -155.166 24.7861 -178.062 27.0863L-178.112 26.5888C-155.164 24.2833 -135.053 26.3108 -114.288 28.4042C-105.518 29.2884 -96.6309 30.1844 -87.3639 30.7706C-57.0287 32.6886 -32.8569 25.7499 -5.19176 13.4832C1.87879 10.3485 8.86457 7.02043 15.8633 3.68618C33.3698 -4.65404 50.9574 -13.0329 70.1559 -18.5198C86.697 -23.2474 103.689 -27.186 120.654 -31.118C132.393 -33.8391 144.119 -36.5571 155.674 -39.5313C162.596 -41.3132 169.668 -43.2768 176.828 -45.2648C198.009 -51.1457 219.961 -57.2407 241.087 -59.4799C253.148 -60.7585 264.448 -59.8719 275.52 -58.3233C280.399 -57.641 285.235 -56.8298 290.073 -56.0185C290.724 -55.9093 291.375 -55.8001 292.026 -55.6912C297.517 -54.7731 303.017 -53.877 308.597 -53.1891C317.412 -52.1023 329.494 -51.0318 341.028 -52.0133C352.573 -52.9958 363.511 -56.0298 370.099 -63.0993L370.279 -62.9314L370.099 -63.0994C374.687 -68.0235 375.547 -71.3682 376.266 -74.1687C376.505 -75.0968 376.728 -75.9651 377.066 -76.8113C378.444 -80.2562 381.682 -83.0736 395.003 -87.5251L395.162 -87.0509C381.823 -82.5936 378.813 -79.8325 377.53 -76.6256C377.213 -75.8331 376.999 -74.998 376.767 -74.092C376.045 -71.2802 375.149 -67.7851 370.464 -62.7585C363.745 -55.5477 352.646 -52.5002 341.07 -51.5151Z" fill="#1F2937" fill-opacity="0.5"/>
<path fill-rule="evenodd" clip-rule="evenodd" d="M342.204 -47.4277C329.932 -46.5358 317.023 -47.7892 309.342 -48.912C303.755 -49.7289 298.283 -50.7779 292.839 -51.848C292.197 -51.9741 291.556 -52.1005 290.915 -52.2268C286.116 -53.173 281.331 -54.1162 276.495 -54.9136C265.534 -56.7208 254.322 -57.7759 242.137 -56.4088C221.021 -54.0402 199.113 -47.9356 177.916 -42.0293C170.704 -40.0198 163.575 -38.0333 156.587 -36.2246C144.413 -33.0741 132.075 -30.2133 119.736 -27.3522C117.701 -26.8804 115.666 -26.4085 113.632 -25.9354C99.2615 -22.5928 84.9247 -19.1848 70.8701 -15.2513C51.5023 -9.83139 34.0827 -1.15646 16.6941 7.50308C9.75944 10.9565 2.82975 14.4075 -4.21665 17.6486C-31.3929 30.1497 -56.5722 37.5 -86.6461 35.0821C-96.0149 34.3287 -104.871 33.214 -113.555 32.1207C-119.393 31.3858 -125.154 30.6607 -130.941 30.0617C-145.351 28.57 -159.969 27.8533 -176.488 29.6886L-176.543 29.1917C-159.976 27.351 -145.318 28.0706 -130.89 29.5643C-125.077 30.166 -119.309 30.8922 -113.47 31.6274C-104.799 32.7191 -95.971 33.8307 -86.606 34.5838C-56.6491 36.9922 -31.559 29.6757 -4.42562 17.1944C2.59077 13.9671 9.50331 10.5247 16.4286 7.07592C33.8336 -1.59169 51.319 -10.2993 70.7354 -15.7328C84.8016 -19.6696 99.1478 -23.0797 113.519 -26.4224C115.554 -26.8957 117.589 -27.3677 119.625 -27.8396C131.964 -30.7007 144.295 -33.5599 156.462 -36.7087C163.429 -38.512 170.545 -40.4949 177.749 -42.5022C198.956 -48.4115 220.922 -54.5322 242.081 -56.9057C254.33 -58.2799 265.592 -57.218 276.577 -55.4069C281.421 -54.6082 286.214 -53.6633 291.012 -52.7173C291.653 -52.591 292.294 -52.4646 292.935 -52.3386C298.379 -51.2686 303.841 -50.2217 309.415 -49.4068C317.077 -48.2867 329.946 -47.0382 342.168 -47.9264C348.279 -48.3705 354.218 -49.3482 359.259 -51.1373C364.303 -52.9271 368.426 -55.5208 370.937 -59.1821L371.143 -59.0407L370.937 -59.1821C373.414 -62.7937 374.358 -65.598 374.816 -67.9091C375.013 -68.9089 375.12 -69.8173 375.221 -70.6698C375.237 -70.8065 375.253 -70.9419 375.269 -71.0759C375.385 -72.0406 375.511 -72.942 375.78 -73.8019C376.326 -75.5446 377.452 -77.0797 380.168 -78.7259C382.872 -80.365 387.174 -82.1267 394.102 -84.3259L394.253 -83.8493C387.331 -81.652 383.078 -79.9047 380.427 -78.2983C377.788 -76.699 376.759 -75.2522 376.257 -73.6523C376.003 -72.841 375.881 -71.9809 375.765 -71.0162C375.75 -70.8839 375.734 -70.7497 375.718 -70.6136C375.617 -69.7615 375.508 -68.8325 375.306 -67.8121C374.836 -65.4358 373.866 -62.5681 371.349 -58.8993C368.756 -55.1181 364.524 -52.4751 359.426 -50.6661C354.327 -48.8566 348.34 -47.8737 342.204 -47.4277Z" fill="#1F2937" fill-opacity="0.5"/>
<path fill-rule="evenodd" clip-rule="evenodd" d="M342.821 -44.5081C330.736 -43.5934 318.028 -44.8031 309.978 -45.835L310.01 -46.083L309.978 -45.835C304.414 -46.5484 298.925 -47.4794 293.45 -48.4329C292.783 -48.549 292.116 -48.6655 291.45 -48.7819C286.642 -49.6219 281.84 -50.4609 276.993 -51.1686C265.959 -52.7797 254.713 -53.7071 242.725 -52.4063C222.812 -50.2457 202.008 -44.6181 181.791 -39.1489C173.562 -36.923 165.431 -34.7233 157.496 -32.7943C147.563 -30.3792 137.522 -28.1046 127.466 -25.8264C109.029 -21.6497 90.5387 -17.4609 72.5621 -12.3727C52.7897 -6.77603 34.8096 2.02679 16.8884 10.8007C9.64876 14.3452 2.4187 17.8849 -4.91601 21.2067C-32.202 33.5631 -57.1582 41.0934 -87.3104 38.6185C-96.6423 37.8526 -105.435 36.726 -114.046 35.6226C-119.86 34.8775 -125.592 34.143 -131.352 33.5374C-145.654 32.0335 -160.172 31.3173 -176.686 33.1804L-176.742 32.6836C-160.179 30.8149 -145.622 31.5341 -131.299 33.0401C-125.514 33.6485 -119.775 34.3841 -113.958 35.1295C-105.362 36.2313 -96.5978 37.3546 -87.2695 38.1202C-57.2366 40.5853 -32.3703 33.0904 -5.12227 20.7512C2.18316 17.4427 9.3965 13.9112 16.6271 10.3712C34.5643 1.58952 52.6076 -7.24415 72.4259 -12.8538C90.4137 -17.9452 108.929 -22.1397 127.375 -26.3187C137.429 -28.5962 147.462 -30.8691 157.378 -33.2802C165.285 -35.2024 173.4 -37.3975 181.619 -39.6209C201.852 -45.0941 222.717 -50.7383 242.671 -52.9034C254.719 -54.2106 266.011 -53.2774 277.066 -51.6633C281.919 -50.9546 286.729 -50.1142 291.536 -49.2744C292.203 -49.1579 292.869 -49.0415 293.535 -48.9255C299.01 -47.972 304.489 -47.0428 310.042 -46.3309C318.081 -45.3005 330.749 -44.0958 342.783 -45.0067C348.8 -45.4621 354.649 -46.4458 359.677 -48.2391C364.706 -50.0327 368.896 -52.6298 371.622 -56.3009C374.247 -59.8372 375.434 -62.6224 376.152 -64.948C376.441 -65.884 376.653 -66.7448 376.854 -67.5582C376.904 -67.7593 376.953 -67.9574 377.002 -68.1531C377.25 -69.1364 377.503 -70.0562 377.885 -70.9365C379.429 -74.4924 383.018 -77.2782 396.223 -81.6675L396.381 -81.193C383.153 -76.7962 379.788 -74.0638 378.344 -70.7374C377.979 -69.8972 377.734 -69.0112 377.487 -68.0311C377.439 -67.8391 377.391 -67.6434 377.341 -67.4439C377.14 -66.6294 376.923 -65.7515 376.63 -64.8006C375.896 -62.4242 374.685 -59.5874 372.023 -56.0028L371.837 -56.1412L372.023 -56.0028C369.219 -52.225 364.929 -49.5813 359.845 -47.7681C354.76 -45.9546 348.863 -44.9655 342.821 -44.5081Z" fill="#1F2937" fill-opacity="0.5"/>
<path fill-rule="evenodd" clip-rule="evenodd" d="M305.948 -43.3424C304.058 -43.5371 302.26 -43.7224 300.575 -43.883C296.397 -44.281 292.261 -44.7424 288.141 -45.2019C270.413 -47.1791 252.994 -49.1219 233.951 -45.8301C216.927 -42.8872 199.753 -38.7685 182.635 -34.6631C171.843 -32.0749 161.073 -29.492 150.377 -27.2125C144.673 -25.9971 138.919 -24.8135 133.142 -23.6253C111.991 -19.2746 90.5412 -14.8627 70.1927 -8.60491C55.7904 -4.17595 42.1073 1.72195 28.6286 7.96737C24.2524 9.99505 19.8967 12.0599 15.5448 14.123C6.49792 18.4118 -2.53238 22.6927 -11.6948 26.6152C-39.0577 38.3296 -63.3655 45.0505 -93.0112 42.3059C-101.237 41.5448 -109.01 40.5459 -116.613 39.5688C-136.932 36.9574 -156.035 34.5024 -179.302 37.1635L-179.359 36.6667C-156.027 33.9982 -136.841 36.464 -116.5 39.0781C-108.908 40.0539 -101.155 41.0503 -92.9651 41.808C-63.4348 44.5419 -39.2149 37.853 -11.8916 26.1555C-2.73777 22.2367 6.27754 17.9629 15.3194 13.6765C19.6734 11.6124 24.0336 9.5454 28.4183 7.5137C41.9036 1.26528 55.6109 -4.64385 70.0457 -9.08282C90.4194 -15.3483 111.9 -19.7666 133.055 -24.1178C138.828 -25.3053 144.577 -26.4878 150.273 -27.7015C160.941 -29.9751 171.7 -32.5553 182.49 -35.1426C199.623 -39.2515 216.832 -43.3782 233.866 -46.3227C252.986 -49.6278 270.489 -47.6749 288.222 -45.6965C292.335 -45.2375 296.461 -44.7772 300.623 -44.3808L300.599 -44.1341L300.623 -44.3808C302.314 -44.2195 304.117 -44.0338 306.009 -43.8388C314.503 -42.9638 324.81 -41.9019 334.996 -42.0288C347.459 -42.184 359.683 -44.1196 368.156 -50.3085C375.158 -55.423 377.663 -59.8224 379.99 -63.9099C380.518 -64.8369 381.037 -65.7479 381.597 -66.6476C383.115 -69.0879 384.933 -71.4323 388.046 -73.7512C391.156 -76.0668 395.547 -78.3498 402.206 -80.6851L402.372 -80.2132C395.741 -77.888 391.4 -75.6255 388.345 -73.3502C385.294 -71.078 383.516 -68.7859 382.021 -66.3834C381.47 -65.4984 380.957 -64.5969 380.433 -63.6754C378.101 -59.5782 375.545 -55.0862 368.451 -49.9047C359.847 -43.6197 347.488 -41.6843 335.003 -41.5288C324.784 -41.4016 314.442 -42.4673 305.948 -43.3424Z" fill="#1F2937" fill-opacity="0.5"/>
<path fill-rule="evenodd" clip-rule="evenodd" d="M-20.5203 32.089C-47.9751 43.1502 -71.9158 49.332 -101.125 46.3481C-108.183 45.627 -114.892 44.7599 -121.446 43.9128C-141.813 41.2805 -160.694 38.8401 -183.978 41.565L-184.036 41.0684C-160.686 38.3357 -141.725 40.7866 -121.344 43.4211C-114.798 44.2672 -108.106 45.1323 -101.074 45.8507C-71.9778 48.8231 -48.1236 42.671 -20.7072 31.6253C-9.25141 27.0094 1.98374 21.9621 13.2316 16.9091C16.6186 15.3876 20.0066 13.8655 23.4022 12.3545C38.0715 5.82708 52.8766 -0.490965 68.3133 -5.65184C94.5923 -14.437 122.797 -19.1431 150.309 -23.7337C153.85 -24.3245 157.379 -24.9134 160.892 -25.5089C172.67 -27.506 184.471 -29.9832 196.275 -32.4612C197.595 -32.7383 198.915 -33.0153 200.235 -33.2918C213.359 -36.0399 226.483 -38.7226 239.569 -40.6777C256.017 -43.1359 272.109 -42.2168 288.065 -41.3055C293.482 -40.996 298.884 -40.6875 304.279 -40.5124C306.014 -40.4561 307.809 -40.3879 309.652 -40.3178C318.534 -39.9801 328.533 -39.6 338.341 -40.3142C350.185 -41.1767 361.713 -43.6337 370.625 -49.6624C377.724 -54.4654 381.644 -58.9227 385.356 -63.1428C386.334 -64.2549 387.297 -65.3505 388.301 -66.4317C393.121 -71.6246 398.819 -76.4282 411.342 -80.9912L411.514 -80.5214C399.069 -75.9871 393.436 -71.2299 388.667 -66.0916C387.675 -65.0228 386.719 -63.9352 385.745 -62.8279C382.03 -58.6022 378.062 -54.0903 370.906 -49.2483L370.766 -49.4554L370.906 -49.2483C361.886 -43.1469 350.254 -40.6804 338.377 -39.8155C328.539 -39.0991 318.506 -39.4806 309.625 -39.8184C307.784 -39.8884 305.993 -39.9565 304.263 -40.0126C298.841 -40.1886 293.423 -40.4981 287.996 -40.808C272.054 -41.7184 256.036 -42.6331 239.643 -40.1831C226.573 -38.2304 213.461 -35.5506 200.338 -32.8024C199.018 -32.526 197.698 -32.2489 196.378 -31.9717C184.574 -29.494 172.764 -27.0148 160.976 -25.016C157.462 -24.4202 153.932 -23.8312 150.391 -23.2404C122.874 -18.6488 94.7107 -13.9494 68.4719 -5.17764C53.0588 -0.0246848 38.2716 6.28529 23.6055 12.8114C20.2137 14.3206 16.828 15.8416 13.4426 17.3625C2.19291 22.4163 -9.05446 27.4692 -20.5203 32.089Z" fill="#1F2937" fill-opacity="0.5"/>
<path fill-rule="evenodd" clip-rule="evenodd" d="M-31.2943 37.671C-58.7468 48.0844 -82.4249 53.8828 -111.166 50.6969C-117.083 50.0407 -122.739 49.3022 -128.261 48.5809C-148.599 45.9248 -167.136 43.5039 -190.344 46.2988L-190.404 45.8024C-167.128 42.9993 -148.516 45.4304 -128.169 48.0883C-122.653 48.8088 -117.009 49.5459 -111.111 50.2C-82.481 53.3735 -58.8883 47.6033 -31.4717 37.2035C-17.0534 31.7351 -2.94139 25.7341 11.1762 19.7307C13.2141 18.8641 15.2521 17.9974 17.2912 17.1323C33.4539 10.275 49.6812 3.51556 66.4282 -2.34511C95.393 -12.4829 125.44 -16.9566 155.816 -20.4379C171.689 -22.2574 187.266 -24.3249 202.728 -26.3771C237.6 -31.0057 271.889 -35.5568 307.681 -37.011C309.506 -37.0851 311.35 -37.1525 313.207 -37.2204C322.57 -37.5624 332.286 -37.9174 341.763 -39.2235C353.117 -40.7883 364.106 -43.7161 373.7 -49.6093L373.82 -49.4146L373.7 -49.6093C381.094 -54.1502 386.46 -58.6443 391.639 -62.9815C393.232 -64.3149 394.806 -65.6334 396.416 -66.9339C403.264 -72.4644 410.729 -77.6424 422.883 -82.1739L423.058 -81.7054C410.968 -77.1979 403.549 -72.0523 396.73 -66.5449C395.131 -65.2536 393.564 -63.9409 391.976 -62.6111C386.792 -58.2696 381.39 -53.7452 373.962 -49.1833C364.286 -43.24 353.222 -40.298 341.831 -38.7282C332.327 -37.4184 322.581 -37.0624 313.218 -36.7204C311.363 -36.6526 309.522 -36.5854 307.701 -36.5114C271.933 -35.0581 237.681 -30.5118 202.82 -25.8847C187.353 -23.8317 171.765 -21.7628 155.873 -19.9411C125.504 -16.4606 95.5028 -11.9916 66.5934 -1.87317C49.8629 3.98168 33.6487 10.7355 17.4865 17.5926C15.4478 18.4575 13.4099 19.3241 11.3719 20.1908C-2.74466 26.1938 -16.8663 32.1989 -31.2943 37.671Z" fill="#1F2937" fill-opacity="0.5"/>
<path fill-rule="evenodd" clip-rule="evenodd" d="M-27.8706 37.4043C-60.849 49.9738 -89.399 59.4683 -124.174 55.079C-127.993 54.5971 -131.695 54.0986 -135.322 53.6103C-156.183 50.8018 -174.53 48.3317 -198.025 51.299L-198.088 50.803C-174.523 47.8269 -156.108 50.3066 -135.246 53.1157C-131.622 53.6038 -127.923 54.1019 -124.111 54.583C-89.4701 58.9554 -61.023 49.505 -28.0486 36.9371C-18.223 33.192 -8.62862 29.4163 0.827541 25.695C52.704 5.27993 100.42 -13.4977 159.317 -16.6012C191.256 -18.2845 222.717 -22.5436 254.366 -26.8283C270.101 -28.9585 285.882 -31.095 301.791 -32.9243C305.026 -33.2963 308.267 -33.6438 311.505 -33.9911C334.944 -36.5045 358.271 -39.0061 378.626 -50.6915L378.75 -50.4747L378.626 -50.6915C385.769 -54.7921 391.927 -58.9157 397.934 -62.9375C400.635 -64.7463 403.305 -66.5345 406.021 -68.2908C414.769 -73.9487 423.962 -79.2589 436.094 -83.8068L436.27 -83.3386C424.183 -78.8078 415.024 -73.5179 406.292 -67.8709C403.59 -66.1231 400.926 -64.3395 398.228 -62.5331C392.215 -58.5068 386.033 -54.3672 378.875 -50.2579C358.422 -38.5162 334.981 -36.0039 311.553 -33.4929C308.315 -33.1459 305.078 -32.7989 301.849 -32.4276C285.961 -30.6007 270.19 -28.4658 254.461 -26.3364C222.799 -22.0501 191.302 -17.7862 159.344 -16.1019C100.534 -13.003 52.9011 5.74105 1.02487 26.1551C-8.43466 29.8775 -18.0353 33.6555 -27.8706 37.4043Z" fill="#1F2937" fill-opacity="0.5"/>
<path fill-rule="evenodd" clip-rule="evenodd" d="M-46.0222 45.0516C-78.7022 56.7304 -104.293 63.5249 -137.835 59.6495C-142.097 59.1572 -146.177 58.6345 -150.149 58.1257C-168.861 55.7287 -185.167 53.64 -206.641 56.485L-206.707 55.9893C-185.163 53.1351 -168.787 55.2333 -150.07 57.6315C-146.101 58.1399 -142.028 58.6618 -137.778 59.1528C-104.35 63.0149 -78.8469 56.2512 -46.1904 44.5808C-30.6629 39.0319 -15.3872 32.9852 -0.180735 26.9658C1.60643 26.2584 3.39261 25.5513 5.17815 24.8455C22.1547 18.1347 39.0709 11.5355 56.1717 5.78572C90.3742 -5.71414 125.327 -13.8204 163.014 -12.6322C212.936 -11.0603 256.614 -19.8517 306.446 -29.882L307.887 -30.172C311.205 -30.8397 314.493 -31.483 317.753 -32.1208C341.123 -36.6931 363.069 -40.9865 384.265 -52.0032C391.254 -55.6353 397.826 -59.3238 404.311 -62.9625C418.836 -71.1136 432.916 -79.015 450.227 -85.474L450.402 -85.0055C433.128 -78.5604 419.101 -70.6887 404.592 -62.5466C398.101 -58.9038 391.514 -55.207 384.496 -51.5595C363.231 -40.5073 341.211 -36.1998 317.846 -31.6293C314.586 -30.9916 311.3 -30.3488 307.986 -29.6818L306.521 -29.3871C256.705 -19.3601 212.979 -10.5588 162.998 -12.1324C125.394 -13.318 90.5045 -5.23046 56.3311 6.25965C39.2439 12.0049 22.3386 18.5997 5.36194 25.3105C3.57658 26.0163 1.79043 26.7233 0.00317691 27.4308C-15.2023 33.4498 -30.4861 39.4997 -46.0222 45.0516Z" fill="#1F2937" fill-opacity="0.5"/>
<path fill-rule="evenodd" clip-rule="evenodd" d="M-46.055 45.9449C-76.0959 56.9294 -106.724 68.1286 -138.911 65.9956C-147.78 65.4078 -155.909 64.3397 -163.823 63.2998C-168.16 62.7299 -172.432 62.1686 -176.726 61.6994C-188.867 60.3728 -201.221 59.7767 -215.817 61.7834L-215.885 61.2881C-201.235 59.2738 -188.836 59.8732 -176.672 61.2023C-172.355 61.674 -168.073 62.2367 -163.733 62.8071C-155.831 63.8456 -147.734 64.9097 -138.878 65.4966C-106.803 67.6223 -76.2775 56.4618 -46.2204 45.4727C-42.9515 44.2776 -39.6882 43.0845 -36.4291 41.9108C-22.6623 36.9529 -8.85496 31.6 5.02623 26.2185C36.5428 13.9999 68.4404 1.6337 101.111 -6.59285C127.023 -13.1167 147.756 -11.0608 172.174 -7.73948C219.362 -1.31961 255.727 -11.7663 301.138 -24.812C304.29 -25.7174 307.485 -26.6354 310.731 -27.5611C316.763 -29.2815 322.724 -30.8955 328.627 -32.4935C349.362 -38.1072 369.368 -43.5237 389.143 -52.6664C396.549 -56.0904 403.774 -59.5793 410.961 -63.0495C428.376 -71.4585 445.564 -79.758 464.543 -86.7597L464.716 -86.2906C445.761 -79.2977 428.607 -71.0145 411.201 -62.6099C404.009 -59.1373 396.775 -55.6441 389.353 -52.2126C369.536 -43.0504 349.476 -37.6197 328.734 -32.0042C322.837 -30.4078 316.885 -28.7965 310.868 -27.0802C307.617 -26.1529 304.416 -25.2332 301.257 -24.3259C255.863 -11.2843 219.402 -0.809538 172.107 -7.24405C147.7 -10.5638 127.048 -12.6072 101.233 -6.10798C68.5933 2.11081 36.7438 14.4585 5.24109 26.6718C-8.64724 32.0562 -22.4682 37.4144 -36.2597 42.3812C-39.5187 43.5549 -42.7833 44.7486 -46.055 45.9449Z" fill="#1F2937" fill-opacity="0.5"/>
<path fill-rule="evenodd" clip-rule="evenodd" d="M238.752 1.83253C214.218 6.96782 196.578 2.88593 175.223 -2.62739C160.73 -6.3693 148.532 -8.65052 135.936 -8.79094C123.342 -8.93134 110.338 -6.93155 94.2349 -2.09738C61.659 7.68234 29.8419 19.3046 -1.95546 30.9196C-20.0639 37.5343 -38.166 44.1467 -56.3981 50.4151C-58.9541 51.2939 -61.508 52.1809 -64.0612 53.0676C-93.4279 63.2667 -122.697 73.4319 -153.803 70.7839C-161.068 70.1652 -167.762 69.2846 -174.251 68.4312C-190.596 66.2811 -205.631 64.3033 -225.183 67.1187L-225.254 66.6238C-205.63 63.798 -190.499 65.7882 -174.128 67.9415C-167.651 68.7934 -160.98 69.6709 -153.76 70.2857C-122.766 72.9243 -93.5966 62.7947 -64.2098 52.5898C-61.6621 51.7051 -59.1129 50.8198 -56.5607 49.9423C-38.3482 43.6806 -20.2547 37.0715 -2.14938 30.458C29.6593 18.839 61.5037 7.20692 94.0911 -2.57627C110.231 -7.42142 123.286 -9.432 135.942 -9.29091C148.596 -9.14984 160.838 -6.8577 175.348 -3.11152C196.692 2.39901 214.236 6.45325 238.649 1.34313C255.784 -2.24387 272.051 -8.88211 288.112 -15.436C293.771 -17.7454 299.405 -20.0443 305.041 -22.1955C317.26 -26.8591 329.715 -30.7578 342.157 -34.6521C342.803 -34.8545 343.45 -35.057 344.097 -35.2596C357.186 -39.3588 370.245 -43.4971 382.998 -48.5632C395.352 -53.4707 407.517 -58.6022 419.675 -63.7309C438.988 -71.8777 458.285 -80.0177 478.297 -87.2428L478.467 -86.7726C458.462 -79.5503 439.192 -71.4212 419.891 -63.2794C407.731 -58.1496 395.558 -53.0148 383.183 -48.0985C370.41 -43.0246 357.334 -38.8812 344.246 -34.7824C343.601 -34.5803 342.956 -34.3783 342.31 -34.1762C329.865 -30.2809 317.423 -26.3864 305.22 -21.7284C299.606 -19.5861 293.987 -17.2931 288.337 -14.9872C272.264 -8.42822 255.935 -1.76459 238.752 1.83253Z" fill="#1F2937" fill-opacity="0.5"/>
<path fill-rule="evenodd" clip-rule="evenodd" d="M270.96 -0.804899C258.093 5.32577 244.733 10.5824 231.04 12.4983C211.011 15.3005 196.212 9.21019 181.122 2.99946C178.755 2.02557 176.382 1.04871 173.979 0.102709C159.426 -5.62926 147.473 -8.12368 134.88 -7.86761C122.282 -7.61144 109.027 -4.60229 91.8669 0.697521C59.124 10.8105 26.9521 22.1889 -5.22133 33.5679C-27.1009 41.3062 -48.9811 49.0447 -71.0423 56.3857C-73.8165 57.3088 -76.5905 58.2436 -79.3653 59.1787C-108.014 68.8331 -136.754 78.518 -166.841 75.6824C-173.176 75.0855 -179.033 74.3131 -184.692 73.5667C-200.706 71.4547 -215.141 69.551 -234.36 72.4185L-234.434 71.924C-215.14 69.0453 -200.614 70.9612 -184.579 73.0761C-178.93 73.8212 -173.093 74.5911 -166.794 75.1846C-136.819 78.0096 -108.181 68.3603 -79.5134 58.7008C-76.743 57.7673 -73.9723 56.8337 -71.2001 55.9113C-49.1598 48.5772 -27.2855 40.8409 -5.40689 33.1031C26.7781 21.7202 58.9725 10.334 91.7193 0.219791C108.892 -5.08395 122.201 -8.10989 134.87 -8.36751C147.545 -8.62524 159.564 -6.11216 174.163 -0.36251C176.575 0.587481 178.955 1.56663 181.324 2.54149C196.416 8.75043 211.084 14.7853 230.971 12.0032C244.588 10.0978 257.893 4.86679 270.745 -1.25629C276.855 -4.1673 282.859 -7.27801 288.744 -10.3272L289.654 -10.7989C295.829 -13.9973 301.872 -17.1131 307.76 -19.8372C324.809 -27.724 342.724 -33.6936 360.705 -39.6853C369.494 -42.6138 378.299 -45.5476 387.025 -48.713C399.764 -53.3332 412.462 -58.0204 425.161 -62.7076C446.959 -70.7535 468.756 -78.799 490.749 -86.5039L490.915 -86.0321C468.924 -78.3282 447.135 -70.2856 425.341 -62.2409C412.641 -57.5534 399.94 -52.8652 387.196 -48.243C378.442 -45.0677 369.623 -42.1294 360.828 -39.1988C342.863 -33.2127 324.994 -27.2588 307.97 -19.3834C302.093 -16.6647 296.06 -13.554 289.884 -10.355L288.972 -9.88215C283.089 -6.83383 277.078 -3.71961 270.96 -0.804899Z" fill="#1F2937" fill-opacity="0.5"/>
<path fill-rule="evenodd" clip-rule="evenodd" d="M267.752 7.70091C255.163 14.5303 241.839 20.2127 228.394 21.4872C209.795 23.251 196.749 15.5346 184.291 8.16577C182.002 6.81202 179.733 5.47 177.453 4.20065C164.85 -2.81707 154.529 -6.46407 143.174 -7.12127C131.813 -7.77883 119.395 -5.44479 102.594 -0.458956C65.5451 10.5358 29.1418 23.1676 -7.24072 35.7923C-26.2716 42.3959 -45.2969 48.9976 -64.406 55.3621C-69.8214 57.1658 -75.3164 59.0762 -80.8737 61.0082C-94.1149 65.6116 -107.71 70.3382 -121.429 74.0397C-140.911 79.296 -160.671 82.4947 -180.082 80.3476C-185.414 79.7581 -190.487 78.9813 -195.454 78.2206C-210.767 75.8755 -225.083 73.6831 -242.957 77.6021L-243.064 77.1137C-225.092 73.173 -210.657 75.3842 -195.321 77.7334C-190.367 78.4923 -185.319 79.2657 -180.027 79.8506C-160.705 81.988 -141.013 78.8057 -121.56 73.5569C-107.859 69.8603 -94.2906 65.1433 -81.0566 60.5423C-75.4951 58.6088 -69.9926 56.6958 -64.564 54.8877C-45.4677 48.5275 -26.4486 41.928 -7.42038 35.3253C28.9696 22.6981 65.3928 10.0594 102.452 -0.938299C119.269 -5.9289 131.754 -8.28309 143.203 -7.62043C154.658 -6.95742 165.054 -3.27577 177.696 3.7638C179.995 5.04336 182.276 6.39199 184.572 7.74939C197.028 15.1139 209.922 22.7367 228.347 20.9894C241.691 19.7245 254.944 14.0802 267.514 7.26141C273.798 3.85278 279.906 0.153576 285.766 -3.43468C286.435 -3.84451 287.102 -4.25291 287.764 -4.65927C292.903 -7.80959 297.842 -10.8375 302.523 -13.4588C331.574 -29.7249 364.985 -41.9286 399.251 -52.7961C413.744 -57.3925 428.385 -61.7483 442.915 -66.0712C462.754 -71.9735 482.386 -77.8145 501.155 -84.1226L501.314 -83.6486C482.544 -77.34 462.89 -71.4927 443.04 -65.5867C428.51 -61.2636 413.874 -56.9091 399.402 -52.3194C365.145 -41.4548 331.773 -29.2633 302.768 -13.0226C298.095 -10.4064 293.165 -7.3841 288.026 -4.23298C287.363 -3.82669 286.697 -3.41825 286.027 -3.00827C280.167 0.580157 274.049 4.28544 267.752 7.70091Z" fill="#1F2937" fill-opacity="0.5"/>
<path fill-rule="evenodd" clip-rule="evenodd" d="M271.52 12.2985C259.169 20.2244 245.954 27.0742 232.405 29.0849C211.837 32.1377 199.174 22.4778 187.38 13.4808C186.224 12.5987 185.076 11.723 183.929 10.8662C174.211 3.60262 166.133 -2.05733 156.535 -4.84328C146.945 -7.62681 135.811 -7.54763 119.981 -3.26861C75.4325 8.77275 31.7995 23.8434 -11.7392 38.8815C-33.8812 46.5293 -55.9989 54.1686 -78.2001 61.3968C-83.5515 63.1392 -88.9849 64.9899 -94.4815 66.8622C-107.326 71.2373 -120.516 75.7301 -133.812 79.2339C-152.803 84.2385 -172.041 87.2349 -190.861 84.9983C-195.502 84.4467 -199.928 83.7699 -204.256 83.1082C-219.26 80.814 -233.086 78.6999 -250.638 82.6015L-250.746 82.1134C-233.095 78.1896 -219.155 80.3219 -204.134 82.6196C-199.817 83.2799 -195.411 83.954 -190.802 84.5018C-172.071 86.7278 -152.903 83.7476 -133.94 78.7504C-120.662 75.2513 -107.499 70.7679 -94.6617 66.3952C-89.1609 64.5215 -83.7199 62.6682 -78.3549 60.9213C-56.172 53.6991 -34.0632 46.0629 -11.9251 38.4166C31.624 23.375 75.2865 8.29428 119.85 -3.75128C135.737 -8.04567 146.969 -8.14034 156.674 -5.32346C166.37 -2.509 174.516 3.20573 184.229 10.4658C185.377 11.3237 186.525 12.199 187.679 13.0795C199.48 22.0787 211.98 31.6109 232.332 28.5903C245.773 26.5955 258.915 19.7931 271.25 11.8777C277.416 7.92106 283.374 3.69052 289.064 -0.351437L289.15 -0.41263C294.806 -4.43072 300.198 -8.26137 305.256 -11.4401C333.912 -29.4499 368.146 -41.2167 403.531 -51.1273C417.355 -54.999 431.35 -58.5863 445.258 -62.1515C466.969 -67.7167 488.469 -73.2279 508.778 -79.682L508.93 -79.2055C488.612 -72.7486 467.082 -67.2296 445.357 -61.6605C431.451 -58.0958 417.465 -54.5106 403.666 -50.6458C368.292 -40.7384 334.115 -28.9869 305.522 -11.0168C300.476 -7.84566 295.094 -4.02196 289.432 3.23741e-05L289.353 0.0561743C283.665 4.09715 277.698 8.33449 271.52 12.2985Z" fill="#1F2937" fill-opacity="0.5"/>
<path fill-rule="evenodd" clip-rule="evenodd" d="M272.095 18.0812C259.672 26.9086 246.199 34.5563 232.313 36.5177C211.492 39.4596 200.034 28.3498 189.779 18.4062C188.614 17.2767 187.465 16.1622 186.319 15.0851C177.545 6.83792 170.338 0.32892 161.213 -3.02481C152.1 -6.37461 141.04 -6.58624 124.552 -2.14675C77.6743 10.4759 31.6953 26.1316 -14.1891 41.755C-37.4896 49.6888 -60.7658 57.6143 -84.1229 65.13C-90.0251 67.0293 -96.0708 69.0887 -102.221 71.1836C-114.759 75.4548 -127.731 79.8736 -140.804 83.3836C-160.295 88.6168 -180.05 91.8418 -199.009 89.5588C-203.445 89.0248 -207.662 88.3798 -211.776 87.7505C-226.413 85.5118 -239.752 83.4717 -256.999 87.3365L-257.108 86.8486C-239.761 82.9614 -226.311 85.0194 -211.658 87.2616C-207.553 87.8896 -203.355 88.5321 -198.949 89.0624C-180.082 91.3343 -160.399 88.127 -140.934 82.9007C-127.876 79.3948 -114.933 74.9857 -102.404 70.7176C-96.2494 68.6212 -90.1951 66.5587 -84.276 64.6541C-60.9363 57.1439 -37.6687 49.2214 -14.372 41.289C31.5224 25.6622 77.5294 9.99708 124.422 -2.62955C140.967 -7.08428 152.14 -6.89239 161.386 -3.49411C170.621 -0.0997714 177.898 6.48387 186.661 14.7207C187.812 15.803 188.965 16.9198 190.13 18.0494C200.392 27.9943 211.675 38.9286 232.243 36.0226C246.006 34.0786 259.398 26.4898 271.805 17.6736C278.007 13.2671 283.955 8.55932 289.576 4.10388L289.815 3.91444C295.344 -0.468691 300.557 -4.60122 305.372 -7.94209C333.999 -27.8058 368.66 -38.9496 404.761 -47.6584C418.432 -50.9563 432.304 -53.9041 446.135 -56.8432C468.849 -61.6699 491.452 -66.4731 512.871 -72.7643L513.012 -72.2846C491.58 -65.9894 468.938 -61.1776 446.206 -56.347C432.379 -53.4085 418.519 -50.463 404.878 -47.1724C368.792 -38.4672 334.205 -27.3405 305.657 -7.53129C300.856 -4.19964 295.653 -0.0755953 290.117 4.31246L289.886 4.49571C284.267 8.95015 278.309 13.6659 272.095 18.0812Z" fill="#1F2937" fill-opacity="0.5"/>
<path fill-rule="evenodd" clip-rule="evenodd" d="M190.013 20.9586C188.527 19.1736 187.057 17.4188 185.562 15.7521C176.708 5.88141 169.32 -0.126769 159.787 -2.44956C150.245 -4.77458 138.512 -3.41774 120.949 1.55597C74.4046 14.7367 28.6145 30.0139 -17.1517 45.2831C-43.4883 54.0699 -69.8169 62.8541 -96.2768 71.2346C-101.779 72.9774 -107.394 74.8539 -113.093 76.7581C-125.265 80.8261 -137.817 85.0205 -150.456 88.3083C-169.017 93.1368 -187.804 96.0209 -205.934 93.689C-209.718 93.2025 -213.333 92.6507 -216.858 92.1125C-231.45 89.8848 -244.508 87.8914 -261.673 91.7366L-261.782 91.2487C-244.518 87.3813 -231.355 89.3917 -216.751 91.6221C-213.234 92.1594 -209.633 92.7094 -205.871 93.1931C-187.832 95.5132 -169.116 92.6459 -150.582 87.8244C-137.959 84.5408 -125.436 80.3559 -113.272 76.2908C-107.57 74.3851 -101.946 72.5057 -96.4278 70.7579C-69.9838 62.3825 -43.6618 53.6006 -17.3277 44.8146C28.4475 29.5425 74.2594 14.2581 120.813 1.07489C138.392 -3.90328 150.23 -5.29264 159.905 -2.93535C169.589 -0.57584 177.062 5.52677 185.934 15.4182C187.436 17.0926 188.911 18.8539 190.397 20.6387C190.551 20.8237 190.705 21.0089 190.859 21.1943C192.194 22.799 193.541 24.4177 194.929 26.0093C198.026 29.5602 201.322 32.9661 205.128 35.7529C212.726 41.3161 222.382 44.4306 236.597 41.2261C250.648 38.0589 263.629 29.8392 275.577 20.5316C281.45 15.956 287.069 11.1221 292.439 6.50125L292.711 6.26745C298.162 1.57796 303.358 -2.88489 308.299 -6.61456C335.583 -27.2123 369.833 -36.8742 405.672 -43.5986C418.642 -46.0322 431.815 -48.0806 444.944 -50.1221C468.118 -53.7255 491.153 -57.3075 512.691 -62.9481L512.817 -62.4644C491.259 -56.8184 468.174 -53.2283 444.981 -49.6213C431.858 -47.5805 418.7 -45.5343 405.764 -43.1072C369.943 -36.3859 335.788 -26.7406 308.6 -6.21551C303.675 -2.49724 298.49 1.95464 293.037 6.64647L292.762 6.88314C287.394 11.502 281.767 16.3428 275.884 20.926C263.919 30.2471 250.867 38.522 236.707 41.7138C222.35 44.9502 212.547 41.8046 204.833 36.1563C200.983 33.3375 197.659 29.8997 194.552 26.3379C193.159 24.7408 191.808 23.1165 190.473 21.5115C190.319 21.327 190.166 21.1426 190.013 20.9586Z" fill="#1F2937" fill-opacity="0.5"/>
<path fill-rule="evenodd" clip-rule="evenodd" d="M273.581 27.7313C261.135 37.6384 247.331 46.2057 232.733 48.2262C220.36 49.9388 211.948 46.6208 205.461 41.341C200.448 37.2604 196.581 32.0017 192.927 27.0325C191.87 25.5942 190.83 24.1802 189.785 22.8261C182.462 13.3327 176.559 5.72299 168.146 1.6322C159.749 -2.45133 148.806 -3.04464 131.368 1.63502C81.3376 15.0614 32.1707 31.5002 -16.9007 47.9071C-41.8323 56.2429 -66.7393 64.5705 -91.7224 72.4906C-98.1937 74.5419 -104.9 76.8276 -111.768 79.1683C-123.925 83.3115 -136.587 87.627 -149.345 91.1199C-169.318 96.5885 -189.574 100.057 -208.598 97.7125C-212.694 97.2078 -216.575 96.6178 -220.348 96.0442C-234.596 93.8781 -247.309 91.9453 -264.279 95.7187L-264.388 95.2306C-247.319 91.4352 -234.499 93.3851 -220.236 95.5544C-216.472 96.1269 -212.607 96.7147 -208.537 97.2162C-189.609 99.5487 -169.427 96.0999 -149.477 90.6377C-136.731 87.1479 -124.099 82.8427 -111.954 78.7033C-105.082 76.3612 -98.3663 74.0721 -91.8734 72.014C-66.9065 64.099 -42.0074 55.7741 -17.0794 47.4395C32.0013 31.0296 81.1943 14.5821 131.238 1.1521C148.729 -3.54181 159.812 -2.97653 168.365 1.18255C176.903 5.33441 182.876 13.0514 190.181 22.5207L189.983 22.6734L190.181 22.5207C191.241 23.8942 192.29 25.3213 193.354 26.7677C197.002 31.7286 200.818 36.917 205.777 40.9532C212.16 46.148 220.433 49.4239 232.664 47.731C247.125 45.7295 260.842 37.2329 273.27 27.3401C279.481 22.3957 285.363 17.1086 290.85 12.1188C291.44 11.5821 292.026 11.0489 292.607 10.5198C297.425 6.13225 301.925 2.03422 306.052 -1.30985C333.77 -23.7714 366.702 -32.1207 401.408 -36.7465C414.041 -38.4304 426.917 -39.6216 439.863 -40.8193C444.698 -41.2666 449.542 -41.7148 454.388 -42.1899C472.213 -43.9377 490.057 -46.0501 507.501 -49.8209L507.607 -49.3321C490.133 -45.5551 472.266 -43.4405 454.437 -41.6923C449.585 -41.2166 444.737 -40.7681 439.9 -40.3206C426.957 -39.1231 414.096 -37.9333 401.474 -36.2509C366.799 -31.6292 333.977 -23.2958 306.366 -0.921388C302.252 2.41287 297.763 6.50035 292.943 10.8899C292.362 11.4187 291.777 11.9519 291.187 12.4887C285.699 17.4788 279.807 22.7757 273.581 27.7313Z" fill="#1F2937" fill-opacity="0.5"/>
<path fill-rule="evenodd" clip-rule="evenodd" d="M271.21 33.7291C258.383 43.7011 244.005 52.0185 228.981 52.7651C216.645 53.3781 208.68 48.8322 202.672 42.6005C199.673 39.4901 197.164 35.9617 194.843 32.456C194.148 31.4062 193.47 30.3596 192.802 29.3268C191.233 26.9037 189.714 24.5566 188.132 22.4226L188.333 22.2737L188.132 22.4226C179.359 10.585 171.809 4.33016 161.667 2.40011C151.5 0.465252 138.687 2.86596 119.358 8.48093C74.3564 21.5531 29.9203 36.1526 -14.4977 50.7463C-37.6779 58.3622 -60.8532 65.9765 -84.1015 73.3713C-91.3598 75.6802 -98.9794 78.3228 -106.836 81.0476C-119.191 85.3326 -132.131 89.8206 -145.173 93.5329C-166.519 99.609 -188.2 103.628 -208.173 101.31C-212.682 100.787 -216.921 100.146 -221.035 99.5248C-235.051 97.4065 -247.615 95.5079 -264.464 99.2237L-264.572 98.7355C-247.624 94.9979 -234.95 96.9139 -220.916 99.0358C-216.812 99.6562 -212.593 100.294 -208.116 100.814C-188.24 103.12 -166.636 99.1223 -145.31 93.052C-132.275 89.3416 -119.367 84.8647 -107.027 80.5846C-99.1679 77.8586 -91.5386 75.2124 -84.2531 72.8949C-61.0145 65.5032 -37.8439 57.8904 -14.6657 50.2752C29.7579 35.6797 74.2092 21.0751 119.218 8.00077C138.539 2.38834 151.461 -0.05118 161.761 1.90892C172.085 3.87383 179.732 10.2491 188.534 22.1249C190.125 24.2722 191.659 26.6408 193.231 29.0703C193.898 30.1 194.572 31.1406 195.26 32.18C197.576 35.6788 200.066 39.1766 203.032 42.2535C208.955 48.3966 216.785 52.8705 228.957 52.2657C243.821 51.527 258.097 43.2901 270.904 33.3343C277.304 28.359 283.328 22.9611 288.868 17.8678C290.135 16.7031 291.377 15.5541 292.592 14.4296C296.688 10.6394 300.483 7.12797 303.919 4.23641C317.059 -6.82155 329.18 -14.7933 342.759 -20.2456C356.337 -25.6979 371.359 -28.6256 390.294 -29.6119C402.564 -30.2509 414.686 -30.4376 426.765 -30.6237C432.573 -30.7132 438.37 -30.8025 444.169 -30.9418C462.034 -31.3712 479.924 -32.2754 498.209 -35.1198L498.286 -34.6258C479.969 -31.7764 462.054 -30.8715 444.181 -30.442C438.373 -30.3024 432.571 -30.213 426.76 -30.1235C414.687 -29.9376 402.581 -29.7511 390.32 -29.1126C371.423 -28.1282 356.459 -25.208 342.945 -19.7816C329.431 -14.3551 317.355 -6.41722 304.241 4.61898L304.088 4.43736L304.241 4.61899C300.815 7.50228 297.032 11.0026 292.938 14.791C291.721 15.9167 290.477 17.0679 289.206 18.2359C283.664 23.3312 277.627 28.7406 271.21 33.7291Z" fill="#1F2937" fill-opacity="0.5"/>
<path fill-rule="evenodd" clip-rule="evenodd" d="M271.547 36.9054C258.55 46.6572 244.138 54.8406 229.65 55.5869C217.601 56.2074 209.551 51.7281 203.354 45.6251C200.259 42.578 197.628 39.1273 195.191 35.7126C194.462 34.6908 193.751 33.6734 193.05 32.671C191.405 30.3167 189.818 28.045 188.188 25.9937C178.995 14.423 171.185 8.30257 160.891 6.44176C150.574 4.57675 137.721 6.98105 118.411 12.5913C74.2922 25.4083 30.7698 39.8254 -12.7331 54.2361C-35.462 61.7653 -58.1856 69.2926 -80.9863 76.5891C-88.112 78.8695 -95.5466 81.4454 -103.188 84.093C-115.753 88.4466 -128.878 92.994 -142.108 96.7396C-163.393 102.766 -185.006 106.735 -205.129 104.511C-209.874 103.987 -214.352 103.319 -218.713 102.668C-232.891 100.553 -245.829 98.6236 -262.655 102.41L-262.764 101.922C-245.84 98.1135 -232.787 100.061 -218.589 102.18C-214.24 102.829 -209.783 103.494 -205.074 104.014C-185.048 106.227 -163.508 102.279 -142.244 96.2585C-129.023 92.5154 -115.93 87.9787 -103.378 83.6294C-95.733 80.9805 -88.2889 78.4011 -81.1387 76.1129C-58.3485 68.8198 -35.63 61.2941 -12.9033 53.7657C30.6058 39.353 74.1445 24.9305 118.272 12.1112C137.574 6.50286 150.534 4.06131 160.98 5.94974C171.45 7.84238 179.356 14.0746 188.579 25.6826C190.219 27.7465 191.821 30.0385 193.47 32.3988C194.169 33.3984 194.876 34.4102 195.598 35.4222C198.03 38.8304 200.642 42.2527 203.704 45.2688C209.821 51.292 217.74 55.6996 229.624 55.0876C243.956 54.3493 258.266 46.2449 271.247 36.5055C277.734 31.6386 283.88 26.3706 289.523 21.4228C290.724 20.3693 291.903 19.3301 293.058 18.3123C297.323 14.5527 301.256 11.0851 304.772 8.26848C318.13 -2.43291 330.086 -10.1489 343.38 -15.4201C356.674 -20.6916 371.292 -23.5128 389.968 -24.4416C402.04 -25.0418 414.023 -25.3065 425.984 -25.5706C449.44 -26.0886 472.812 -26.6048 496.609 -29.6471L496.672 -29.1511C472.851 -26.1057 449.431 -25.5882 425.958 -25.0696C414.004 -24.8054 402.036 -24.541 389.993 -23.9422C371.355 -23.0153 356.794 -20.2014 343.564 -14.9554C330.334 -9.70905 318.421 -2.02515 305.085 8.6587C301.579 11.4672 297.657 14.9242 293.394 18.6825C292.238 19.7014 291.057 20.7425 289.853 21.7988C284.208 26.7483 278.05 32.0267 271.547 36.9054Z" fill="#1F2937" fill-opacity="0.5"/>
<path fill-rule="evenodd" clip-rule="evenodd" d="M271.766 40.1002C258.606 49.3388 244.209 57.1 230.167 57.8866C218.341 58.5491 210.151 54.3275 203.677 48.5284C200.444 45.6325 197.639 42.344 195.025 39.0806C194.229 38.086 193.45 37.0949 192.683 36.1178C190.929 33.8831 189.233 31.7223 187.506 29.7637C177.774 18.7249 169.603 12.8896 159.148 11.1698C148.673 9.44662 135.868 11.847 116.845 17.3952C74.1367 29.8503 32.0549 43.9673 -10.0065 58.0775C-31.9967 65.4545 -53.9814 72.8296 -76.0473 79.9644C-82.8486 82.1632 -89.8675 84.5911 -97.0387 87.0716C-109.934 91.5321 -123.322 96.163 -136.822 99.9388C-157.837 105.817 -179.169 109.637 -199.439 107.539C-204.486 107.016 -209.282 106.323 -213.973 105.644C-228.64 103.523 -242.281 101.55 -259.378 105.412L-259.488 104.924C-242.293 101.041 -228.535 103.031 -213.846 105.156C-209.168 105.833 -204.396 106.523 -199.388 107.042C-179.209 109.13 -157.948 105.329 -136.956 99.4573C-123.468 95.6848 -110.11 91.064 -97.2259 86.6071C-90.0508 84.1252 -83.0227 81.694 -76.2011 79.4886C-54.1466 72.3575 -32.1672 64.9842 -10.1793 57.608C31.8886 43.4957 73.988 29.3729 116.705 16.9152C135.724 11.368 148.63 8.93279 159.229 10.6764C169.849 12.4235 178.116 18.3574 187.881 29.4331C189.617 31.4026 191.328 33.5815 193.087 35.8216C193.852 36.7962 194.626 37.7824 195.416 38.768C198.024 42.0252 200.808 45.288 204.01 48.1559C210.406 53.8845 218.471 58.041 230.139 57.3874C244.033 56.609 258.333 48.9195 271.479 39.6909C278.048 35.0794 284.32 30.0901 290.101 25.3993C291.233 24.4806 292.347 23.5731 293.44 22.6822C297.927 19.0263 302.073 15.6475 305.771 12.9041L305.92 13.1049L305.771 12.9041C319.527 2.69937 331.606 -4.56787 344.847 -9.57361C358.088 -14.5795 372.478 -17.3191 390.854 -18.4834C403.042 -19.2554 415.194 -19.8066 427.337 -20.3573C451.127 -21.4364 474.884 -22.5139 498.821 -25.2473L498.877 -24.7506C474.925 -22.0153 451.137 -20.9363 427.335 -19.8566C415.197 -19.306 403.055 -18.7552 390.885 -17.9844C372.544 -16.8223 358.205 -14.0894 345.023 -9.10592C331.841 -4.12229 319.804 3.11668 306.069 13.3057C302.381 16.0415 298.246 19.4109 293.761 23.066C292.666 23.9578 291.551 24.8667 290.416 25.7875C284.633 30.4797 278.35 35.4781 271.766 40.1002Z" fill="#1F2937" fill-opacity="0.5"/>
<path fill-rule="evenodd" clip-rule="evenodd" d="M271.893 43.2859C258.583 51.7774 244.242 58.8967 230.557 59.754C211.213 60.9659 200.904 49.6487 191.76 39.6094C189.88 37.546 188.05 35.5367 186.2 33.7011C175.849 23.4279 167.238 17.9998 156.615 16.4759C145.975 14.9495 133.283 17.3336 114.754 22.7813C73.8871 34.7959 33.6744 48.5154 -6.51595 62.2273C-27.5135 69.3911 -48.505 76.5529 -69.5805 83.4683C-75.7995 85.509 -82.1336 87.698 -88.5547 89.917C-101.968 94.5524 -115.761 99.3189 -129.676 103.139C-150.259 108.789 -171.144 112.38 -191.541 110.425C-196.961 109.905 -202.151 109.186 -207.25 108.48C-222.661 106.346 -237.245 104.326 -254.867 108.262L-254.976 107.774C-237.258 103.817 -222.556 105.853 -207.123 107.991C-202.037 108.696 -196.872 109.411 -191.493 109.927C-171.184 111.874 -150.365 108.3 -129.808 102.657C-115.908 98.841 -102.143 94.0839 -88.7386 89.4514C-82.3134 87.2309 -75.9711 85.0391 -69.7364 82.9933C-48.673 76.0818 -27.6873 68.922 -6.69231 61.7591C33.505 48.0449 73.7365 34.319 114.613 22.3016C133.143 16.8535 145.928 14.4377 156.686 15.9809C167.46 17.5266 176.166 23.0376 186.553 33.3462C188.431 35.2108 190.281 37.2402 192.174 39.3157C201.317 49.3443 211.442 60.4505 230.526 59.255C244.077 58.406 258.327 51.3472 271.624 42.8644C278.269 38.6253 284.668 34.036 290.614 29.6986C291.653 28.9408 292.678 28.1907 293.689 27.4514C298.459 23.9607 302.899 20.7118 306.885 18.049C335.395 -0.994241 356.723 -8.65815 392.759 -11.8715C405.27 -12.9869 417.782 -13.9562 430.294 -14.9256C454.954 -16.8361 479.615 -18.7466 504.271 -21.7753L504.332 -21.279C479.666 -18.2491 454.984 -16.3369 430.317 -14.4258C417.808 -13.4567 405.302 -12.4878 392.803 -11.3735C356.85 -8.16746 335.602 -0.531286 307.163 18.4648C303.186 21.121 298.757 24.3621 293.987 27.8528C292.976 28.5925 291.95 29.3435 290.909 30.1025C284.961 34.4409 278.552 39.0379 271.893 43.2859Z" fill="#1F2937" fill-opacity="0.5"/>
<path fill-rule="evenodd" clip-rule="evenodd" d="M271.935 46.3908C258.552 53.9684 244.374 60.3148 230.849 61.2704C211.568 62.6324 200.543 52.4845 190.386 43.1367C188.375 41.286 186.398 39.4666 184.398 37.7742C173.394 28.4624 164.287 23.538 153.486 22.2512C142.672 20.9627 130.129 23.3161 112.241 28.6368C73.5992 40.1302 35.6432 53.3637 -2.28949 66.589C-22.1266 73.5053 -41.9573 80.4193 -61.8762 87.081C-67.1881 88.8575 -72.531 90.7066 -77.9022 92.5655C-111.66 104.248 -146.536 116.318 -181.857 113.194C-187.704 112.677 -193.348 111.933 -198.918 111.198C-215.283 109.04 -231.009 106.966 -249.368 110.99L-249.475 110.502C-231.023 106.457 -215.179 108.547 -198.791 110.709C-193.235 111.442 -187.616 112.183 -181.813 112.696C-146.607 115.81 -111.845 103.781 -78.0798 92.0973C-72.7055 90.2376 -67.3564 88.3866 -62.0348 86.6068C-42.1289 79.9494 -22.3044 73.0376 -2.47002 66.1223C35.4701 52.8945 73.4465 39.654 112.098 28.1575C129.993 22.8348 142.622 20.4532 153.545 21.7547C164.482 23.0577 173.679 28.0481 184.721 37.3925C186.747 39.1064 188.741 40.9402 190.762 42.7993C200.916 52.1379 211.766 62.1172 230.814 60.7716C244.222 59.8243 258.319 53.5256 271.689 45.9557C278.371 42.1723 284.864 38.0757 290.993 34.1782C291.496 33.858 291.997 33.5392 292.496 33.222C298.063 29.679 303.313 26.3378 308.101 23.601C337.89 6.57481 360.171 -0.4006 395.513 -4.73993C408.715 -6.36098 421.917 -7.96453 435.119 -9.56803C460.885 -12.6976 486.65 -15.8271 512.411 -19.0862L512.474 -18.5901C486.712 -15.3309 460.945 -12.2012 435.178 -9.07153C421.976 -7.46804 408.775 -5.86455 395.574 -4.24366C360.291 0.0883639 338.075 7.0449 308.349 24.0351C303.572 26.7657 298.332 30.1004 292.762 33.6452C292.264 33.9619 291.764 34.2803 291.261 34.6001C285.133 38.4976 278.63 42.6004 271.935 46.3908Z" fill="#1F2937" fill-opacity="0.5"/>
<path fill-rule="evenodd" clip-rule="evenodd" d="M275.446 47.8015C262.321 54.3105 248.689 59.947 235.345 61.8668C213.708 64.9797 201.359 56.004 188.643 46.7613C187.67 46.0546 186.696 45.3462 185.715 44.6416C175.861 37.5639 167.62 32.0912 157.93 29.4523C148.248 26.8154 137.092 27.0021 121.41 31.3034C80.4781 42.5304 40.5616 57.0326 0.760087 71.493C-19.4559 78.8377 -39.6421 86.1716 -59.9167 93.0601C-62.6785 93.9984 -65.4255 94.9394 -68.1606 95.8764C-102.772 107.733 -135.479 118.936 -172.056 115.746C-177.902 115.236 -183.606 114.525 -189.258 113.82C-206.789 111.635 -223.828 109.511 -243.114 113.623L-243.219 113.134C-223.843 109.003 -206.692 111.142 -189.141 113.33C-183.502 114.033 -177.821 114.741 -172.012 115.248C-135.545 118.429 -102.936 107.259 -68.3047 95.3971C-65.5758 94.4623 -62.8344 93.5233 -60.0776 92.5867C-39.8244 85.7055 -19.6486 78.3754 0.562586 71.0325C40.3764 56.5678 80.3274 42.0533 121.278 30.8212C137.017 26.5045 148.267 26.3025 158.062 28.9698C167.849 31.6351 176.155 37.1595 186.007 44.2355C186.986 44.939 187.958 45.6455 188.927 46.3498C201.646 55.5921 213.842 64.4552 235.274 61.3719C248.537 59.4637 262.111 53.8563 275.224 47.3535C281.466 44.2582 287.598 40.9624 293.541 37.7686L294.435 37.2883C300.654 33.9467 306.66 30.734 312.351 28.006C343.425 13.1082 378.813 4.36761 415.023 -1.90977C437.498 -5.80607 460.305 -8.75548 482.596 -11.6382C496.21 -13.3989 509.633 -15.1347 522.67 -17.0462L522.742 -16.5514C509.687 -14.6373 496.257 -12.9006 482.64 -11.1397C460.36 -8.25842 437.577 -5.31219 415.109 -1.41712C378.917 4.85714 343.581 13.5881 312.567 28.4568C306.888 31.179 300.892 34.3863 294.672 37.7288L293.776 38.21C287.835 41.4029 281.696 44.7023 275.446 47.8015Z" fill="#1F2937" fill-opacity="0.5"/>
<path fill-rule="evenodd" clip-rule="evenodd" d="M275.657 50.9565C262.398 56.3277 248.826 60.9987 235.554 62.8825C213.354 66.0333 200.255 58.3525 185.545 49.7269C184.882 49.3382 184.216 48.9476 183.545 48.556L183.671 48.3401L183.545 48.556C173.024 42.4086 164.088 37.6605 154.012 35.4908C143.942 33.3225 132.713 33.7256 117.61 37.9227C79.6478 48.4705 42.7417 62.3218 5.9568 76.1277C-12.7328 83.1422 -31.3912 90.1449 -50.1409 96.6967L-51.6101 97.2102C-88.8263 110.219 -121.158 121.52 -160.204 118.367C-165.98 117.9 -171.543 117.336 -177.001 116.783C-196.5 114.807 -214.658 112.967 -236.356 116.195L-236.429 115.7C-214.664 112.462 -196.429 114.311 -176.92 116.288C-171.469 116.841 -165.919 117.404 -160.164 117.868C-121.224 121.013 -88.9805 109.743 -51.7353 96.7243L-50.3058 96.2247C-31.5794 89.681 -12.9324 82.6827 5.752 75.6703C42.5502 61.8596 79.4938 47.9943 117.476 37.4409C132.636 33.228 143.949 32.8126 154.117 35.002C164.279 37.19 173.275 41.976 183.797 48.1242C184.463 48.513 185.124 48.9006 185.782 49.2862C200.493 57.9119 213.459 65.5135 235.484 62.3874C248.695 60.5123 262.222 55.8597 275.47 50.4931C281.574 48.0203 287.615 45.3974 293.538 42.826C294.042 42.6073 294.545 42.389 295.047 42.1711C301.45 39.3927 307.708 36.6949 313.742 34.339C372.195 11.5169 441.046 0.0717991 505.131 -10.5808C515.05 -12.2296 524.855 -13.8595 534.489 -15.5096L534.574 -15.0168C524.934 -13.3659 515.127 -11.7355 505.206 -10.0864C441.117 0.567442 372.324 12.0032 313.924 34.8048C307.9 37.1568 301.65 39.851 295.246 42.6298C294.744 42.8478 294.24 43.0664 293.736 43.2853C287.814 45.8562 281.767 48.4814 275.657 50.9565Z" fill="#1F2937" fill-opacity="0.5"/>
<path fill-rule="evenodd" clip-rule="evenodd" d="M293.46 48.3194C274.497 54.6228 254.854 61.1524 235.745 63.7939C212.533 67.0032 198.627 60.5512 181.283 52.5044L181.252 52.4902C169.979 47.2605 160.417 43.3428 150.006 41.7133C139.601 40.0846 128.33 40.7398 113.645 44.6841C78.6802 54.0767 44.7247 67.4801 11.0007 80.7922C-6.02679 87.5135 -22.9953 94.2116 -40.0049 100.358C-77.7731 114.006 -108.337 123.925 -147.864 120.956C-154.156 120.483 -160.243 119.898 -166.234 119.323C-186.955 117.332 -206.515 115.453 -229.311 118.727L-229.382 118.232C-206.521 114.949 -186.886 116.836 -166.155 118.828C-160.171 119.403 -154.097 119.986 -147.827 120.457C-108.414 123.418 -77.9384 113.534 -40.1748 99.8881C-23.1949 93.752 -6.24095 87.0599 10.7798 80.3414C44.5207 67.0229 78.5244 53.6008 113.515 44.2012C128.252 40.243 139.595 39.5776 150.084 41.2193C160.568 42.8603 170.184 46.8043 181.462 52.0367L181.357 52.2635L181.462 52.0367L181.473 52.0416C198.818 60.0886 212.61 66.4877 235.676 63.2986C254.737 60.6638 274.31 54.1575 293.256 47.8594C300.68 45.3918 308.007 42.9561 315.169 40.7979C389.79 18.3102 470.66 0.770911 547.315 -14.336L547.411 -13.8455C470.761 1.26063 389.91 18.7962 315.314 41.2766C308.181 43.4258 300.873 45.8553 293.46 48.3194Z" fill="#1F2937" fill-opacity="0.5"/>
<path fill-rule="evenodd" clip-rule="evenodd" d="M295.27 52.581C276.993 56.7525 258.621 60.9458 240.26 63.8694C212.75 68.2488 197.222 62.7692 174.756 54.8173C162.717 50.5556 152.152 47.9474 141.081 47.4919C130.01 47.0364 118.419 48.7327 104.327 53.0974C74.1974 62.431 45.1249 74.1733 16.0884 85.9011C-0.778714 92.7137 -17.6337 99.5214 -34.6767 105.849C-70.8678 119.285 -99.1642 126.603 -136.971 123.408C-141.943 122.988 -146.827 122.524 -151.659 122.065C-174.983 119.848 -197.114 117.745 -222.229 121.259L-222.299 120.764C-197.12 117.241 -174.923 119.351 -151.596 121.568C-146.767 122.027 -141.891 122.491 -136.929 122.91C-99.227 126.096 -71.0105 118.805 -34.8508 105.38C-17.8368 99.0635 -0.993729 92.2608 15.8691 85.4502C44.9221 73.7161 74.0337 61.9583 104.179 52.6198C118.312 48.2425 129.961 46.534 141.102 46.9923C152.241 47.4506 162.858 50.075 174.923 54.346C197.376 62.2932 212.803 67.7342 240.181 63.3756C258.526 60.4547 276.87 56.2676 295.139 52.0979C303.319 50.2308 311.484 48.3671 319.627 46.6222C360.248 37.9174 400.233 27.4028 440.191 16.8204C441.769 16.4023 443.348 15.984 444.927 15.5658C483.303 5.39941 521.675 -4.76609 560.573 -13.384L560.682 -12.8959C521.794 -4.2802 483.43 5.88292 445.052 16.05C443.474 16.4679 441.896 16.8859 440.319 17.3037C400.362 27.8859 360.366 38.4034 319.731 47.1111C311.603 48.853 303.446 50.7148 295.27 52.581Z" fill="#1F2937" fill-opacity="0.5"/>
<path fill-rule="evenodd" clip-rule="evenodd" d="M448.333 24.2389C406.781 36.6131 364.944 47.8633 321.149 53.7509C294.237 57.369 267.372 61.1153 240.479 64.95C213.004 68.8672 196.363 65.4173 172.271 59.0573C139.047 50.2862 105.557 56.7949 72.5384 68.5419C56.0299 74.4152 39.6463 81.595 23.4772 88.8239C21.5538 89.6838 19.6334 90.5444 17.7161 91.4037C3.51914 97.766 -10.5036 104.05 -24.2801 109.39C-59.9644 123.222 -87.5618 129.078 -125.036 126.016C-130.196 125.595 -135.282 125.129 -140.325 124.668C-165.112 122.399 -188.873 120.224 -215.352 123.815L-215.419 123.32C-188.879 119.72 -165.054 121.901 -140.265 124.171C-135.225 124.632 -130.146 125.097 -124.995 125.518C-87.6151 128.572 -60.0945 122.736 -24.4608 108.924C-10.6971 103.589 3.31304 97.3104 17.5116 90.9474C19.4287 90.0883 21.3492 89.2276 23.2731 88.3675C39.4423 81.1386 55.8419 73.9514 72.3708 68.0709C105.427 56.3105 139.031 49.765 172.398 58.5738C196.464 64.9269 213.03 68.3584 240.408 64.455C267.302 60.6201 294.169 56.8737 321.083 53.2554C364.837 47.3731 406.645 36.132 448.191 23.7597C458.791 20.6028 469.376 17.3721 479.971 14.138C510.895 4.69886 541.912 -4.76884 573.706 -12.5128L573.824 -12.027C542.045 -4.28675 511.048 5.17491 480.128 14.6128C469.53 17.8477 458.941 21.0799 448.333 24.2389Z" fill="#1F2937" fill-opacity="0.5"/>
<path fill-rule="evenodd" clip-rule="evenodd" d="M457.263 30.7783C414.24 44.9916 370.764 57.0992 325.559 59.9996C312.965 60.8076 300.18 62.039 287.348 63.291L285.739 63.4481C273.442 64.6487 261.108 65.8529 248.873 66.7055C223.336 68.4849 198.213 68.7341 174.713 64.2189C151.026 59.6677 130.919 56.8493 105.163 63.6973C79.032 70.6452 53.9292 82.2403 29.308 93.6129C18.7691 98.4808 8.31837 103.308 -2.08687 107.713C-35.8564 122.008 -63.5269 131.323 -100.522 129.577C-111.374 129.065 -121.978 128.135 -132.506 127.212C-139.764 126.576 -146.986 125.943 -154.228 125.452C-171.989 124.247 -189.912 123.893 -208.915 126.424L-208.981 125.929C-189.931 123.392 -171.971 123.747 -154.194 124.953C-146.929 125.445 -139.701 126.079 -132.442 126.716C-121.927 127.638 -111.348 128.565 -100.499 129.077C-63.6165 130.819 -36.0297 121.538 -2.28176 107.252C8.0914 102.861 18.5239 98.0424 29.053 93.1791C53.6919 81.7985 78.8599 70.1736 105.034 63.2141C130.903 56.336 151.103 59.1732 174.807 63.7279C198.244 68.2308 223.316 67.9851 248.838 66.2067C261.066 65.3546 273.393 64.1511 285.692 62.9503L287.3 62.7934C300.13 61.5414 312.924 60.3093 325.527 59.5006C370.667 56.6044 414.094 44.5133 457.106 30.3035C470.017 26.0381 482.893 21.5811 495.766 17.1249C525.767 6.73954 555.755 -3.64139 586.156 -11.5833L586.282 -11.0996C555.901 -3.16274 525.943 7.20787 495.95 17.5904C483.073 22.048 470.189 26.5079 457.263 30.7783Z" fill="#1F2937" fill-opacity="0.5"/>
<path fill-rule="evenodd" clip-rule="evenodd" d="M432.366 45.5681C395.032 58.3006 365.857 66.2294 326.905 66.3013C318.715 66.3161 310.544 66.126 302.369 65.9358C283.449 65.4955 264.512 65.0549 245.281 67.1537C218.521 70.0728 198.823 71.3467 173.021 68.0258C148.888 64.9209 127.143 62.8198 101.798 69.838C77.9315 76.4482 55.3523 87.4711 33.1907 98.2902C23.897 102.827 14.6768 107.329 5.46585 111.453C-27.3523 126.151 -53.5855 133.972 -89.8895 132.324C-101.235 131.809 -112.355 130.861 -123.409 129.918C-130.965 129.273 -138.49 128.631 -146.036 128.132C-164.634 126.902 -183.394 126.536 -203.162 129.121L-203.227 128.625C-183.412 126.035 -164.616 126.402 -146.003 127.633C-138.435 128.134 -130.903 128.776 -123.346 129.421C-112.304 130.363 -101.209 131.31 -89.8668 131.825C-53.6681 133.468 -27.5154 125.676 5.26147 110.997C14.4398 106.887 23.6415 102.395 32.9251 97.8626C55.1046 87.035 77.7514 75.9792 101.664 69.3562C127.114 62.3092 148.945 64.4241 173.085 67.5299C198.829 70.8433 218.481 69.5742 245.226 66.6567C264.492 64.5541 283.483 64.9959 302.418 65.4364C310.585 65.6263 318.741 65.8161 326.904 65.8013C365.776 65.7295 394.89 57.8208 432.205 45.0949C449.006 39.3646 465.718 33.3868 482.437 27.4062C520.329 13.8523 558.261 0.284249 597.355 -10.4489L597.487 -9.96675C558.412 0.761256 520.51 14.3189 482.627 27.8697C465.903 33.8518 449.182 39.8327 432.367 45.5681L432.286 45.332L432.366 45.5681Z" fill="#1F2937" fill-opacity="0.5"/>
<path fill-rule="evenodd" clip-rule="evenodd" d="M435.681 51.6459C397.051 65.4139 368.405 74.145 328.148 72.1352C319.871 71.7222 311.633 71.0239 303.386 70.3248C284.38 68.7137 265.328 67.0987 245.65 68.9638C244.102 69.1105 242.571 69.2566 241.057 69.4012C216.646 71.731 196.368 73.6664 171.763 71.7461C147.321 69.8382 124.097 68.3369 99.0351 75.4938C83.5262 79.9224 68.7947 86.4803 54.4175 93.6018C48.4189 96.5731 42.4768 99.6453 36.5657 102.701C28.3212 106.964 20.1369 111.196 11.9432 115.079C-19.9029 130.172 -45.3852 136.741 -80.9794 135.176C-92.7396 134.658 -104.295 133.692 -115.795 132.73C-123.595 132.077 -131.37 131.427 -139.165 130.92C-158.464 129.666 -177.924 129.291 -198.327 131.931L-198.392 131.435C-177.943 128.789 -158.446 129.166 -139.133 130.421C-131.316 130.929 -123.535 131.58 -115.733 132.233C-104.246 133.194 -92.7138 134.159 -80.9574 134.676C-45.4592 136.238 -20.0578 129.692 11.729 114.627C19.921 110.745 28.0862 106.523 36.3203 102.265C42.2315 99.2091 48.1781 96.1344 54.1955 93.1538C68.5829 86.0272 83.346 79.4539 98.8978 75.013C124.056 67.8286 147.364 69.34 171.802 71.2476C196.363 73.1645 216.601 71.233 241.018 68.9025C242.53 68.7583 244.058 68.6125 245.603 68.466C265.327 66.5966 284.452 68.2175 303.479 69.8301C311.715 70.5282 319.932 71.2247 328.173 71.6358C368.327 73.6405 396.897 64.9382 435.513 51.1749C452.963 44.9551 470.309 38.4472 487.667 31.9352C526.86 17.2308 566.11 2.505 606.743 -8.97494L606.879 -8.49378C566.267 2.98032 527.049 17.694 487.865 32.3949C470.503 38.9087 453.148 45.42 435.681 51.6459Z" fill="#1F2937" fill-opacity="0.5"/>
<path fill-rule="evenodd" clip-rule="evenodd" d="M417.799 64.4311C381.432 77.1941 356.761 80.3287 320.177 76.371C314.971 75.808 309.814 75.1774 304.677 74.5492C283.268 71.9313 262.191 69.354 239.269 71.8729C213.392 74.7159 191.577 76.0828 165.932 75.1013C141.529 74.1662 117.588 74.0119 93.253 81.7325C78.9602 86.2673 65.7172 92.6977 52.7748 99.5687C48.5908 101.79 44.4367 104.058 40.2886 106.323C31.612 111.06 22.9613 115.784 14.1172 120.034C-21.3338 137.069 -55.1497 138.372 -89.2854 136.625C-97.363 136.211 -105.457 135.628 -113.593 135.041C-139.855 133.146 -166.568 131.219 -194.651 134.885L-194.715 134.389C-166.577 130.716 -139.796 132.649 -113.524 134.544C-105.396 135.13 -97.3159 135.713 -89.2599 136.125C-55.1541 137.871 -21.4382 136.564 13.9006 119.583C22.7333 115.338 31.3644 110.626 40.0346 105.892C44.1854 103.625 48.3451 101.354 52.5403 99.1271C65.4914 92.2515 78.7657 85.8044 93.1018 81.2559C117.527 73.5067 141.545 73.6665 165.951 74.6016C191.564 75.5819 213.353 74.2172 239.214 71.3759C262.2 68.85 283.347 71.4363 304.76 74.0553C309.892 74.6829 315.039 75.3125 320.231 75.8739C356.736 79.823 381.332 76.6995 417.634 63.9593C442.108 55.3703 466.231 45.9736 490.365 36.5723C498.566 33.3775 506.769 30.1823 514.987 27.018C547.387 14.5431 580.025 2.55157 613.758 -7.01667L613.894 -6.53565C580.185 3.02617 547.564 15.011 515.167 27.4846C506.953 30.6473 498.753 33.8416 490.553 37.0357C466.416 46.4379 442.282 55.839 417.799 64.4311Z" fill="#1F2937" fill-opacity="0.5"/>
<path fill-rule="evenodd" clip-rule="evenodd" d="M418.849 69.3174C382.208 82.3437 357.644 85.6725 321.068 80.6212C316.015 79.9234 311.042 79.1632 306.106 78.4087C284.475 75.1025 263.557 71.9052 239.82 74.5393C214.103 77.3922 191.366 79.0393 165.762 78.716C141.231 78.4059 116.392 78.3386 92.1111 86.062C78.48 90.397 66.0633 96.6368 53.9723 103.33C50.0407 105.506 46.142 107.731 42.2469 109.954C34.1705 114.564 26.1098 119.165 17.8056 123.302C-17.225 140.752 -51.51 142.002 -86.1599 140.108C-94.401 139.657 -102.661 139.029 -110.956 138.399C-137.552 136.376 -164.509 134.327 -192.372 138.012L-192.438 137.516C-164.518 133.824 -137.489 135.879 -110.883 137.902C-102.596 138.532 -94.3511 139.159 -86.1326 139.609C-51.5112 141.501 -17.3312 140.247 17.5827 122.854C25.8744 118.724 33.9136 114.135 41.9829 109.529C45.881 107.304 49.7861 105.076 53.7301 102.892C65.8308 96.194 78.2814 89.9355 91.9595 85.5855C116.328 77.8342 141.245 77.906 165.768 78.216C191.345 78.539 214.06 76.8938 239.765 74.0423C263.573 71.4003 284.568 74.6099 306.204 77.9175C311.134 78.6712 316.098 79.4301 321.136 80.1259C357.621 85.1647 382.105 81.8497 418.681 68.8463C443.485 60.0283 467.896 50.2659 492.325 40.4962C500.684 37.1533 509.045 33.8096 517.425 30.5025C550.291 17.532 583.437 5.12827 617.836 -4.43247L617.97 -3.95073C583.597 5.60277 550.47 17.9986 517.608 30.9676C509.233 34.2728 500.875 37.6153 492.518 40.9575C468.086 50.7282 443.663 60.4958 418.849 69.3174Z" fill="#1F2937" fill-opacity="0.5"/>
<path fill-rule="evenodd" clip-rule="evenodd" d="M420.618 72.0972C383.461 85.3927 358.965 89.5707 321.828 84.1456C316.846 83.4178 311.963 82.6348 307.132 81.8601C285.357 78.3683 264.616 75.0423 240.468 77.6772C214.977 80.4594 191.719 82.1028 166.319 82.1361L165.023 82.1377C140.818 82.1672 116.101 82.1973 92.2703 89.7803C78.8648 94.0457 66.6486 100.161 54.7511 106.72C50.8547 108.868 46.9908 111.064 43.1303 113.259C35.2102 117.762 27.3044 122.256 19.162 126.306C-15.6869 143.638 -50.1308 145.143 -84.964 143.464C-93.6513 143.045 -102.361 142.428 -111.106 141.809C-137.442 139.944 -164.106 138.056 -191.484 141.475L-191.546 140.979C-164.115 137.554 -137.382 139.447 -111.034 141.312C-102.297 141.931 -93.6031 142.546 -84.9399 142.964C-50.135 144.642 -15.7944 143.133 18.9393 125.858C27.0698 121.814 34.9544 117.332 42.8673 112.833C46.7307 110.637 50.6009 108.437 54.5097 106.282C66.4169 99.7177 78.6668 93.584 92.1187 89.3039C116.024 81.6971 140.809 81.667 164.991 81.6377L166.318 81.6361C191.696 81.6029 214.936 79.961 240.414 77.1802C264.635 74.5373 285.452 77.8762 307.232 81.3693C312.058 82.1434 316.932 82.925 321.9 83.6508C358.936 89.0612 383.348 84.9021 420.45 71.6264C444.432 63.0457 468.079 53.6261 491.747 44.1983C500.7 40.6321 509.656 37.0647 518.634 33.5411C551.342 20.7038 584.34 8.45002 618.533 -1.03513L618.667 -0.553329C584.499 8.92475 551.521 21.1708 518.816 34.0066C509.844 37.5281 500.891 41.0942 491.94 44.6597C468.269 54.0887 444.609 63.5133 420.618 72.0972Z" fill="#1F2937" fill-opacity="0.5"/>
<path fill-rule="evenodd" clip-rule="evenodd" d="M423.159 73.3256C385.063 86.9533 360.74 92.3407 322.449 86.8897C317.279 86.1535 312.215 85.3558 307.206 84.5665C285.594 81.1617 264.977 77.9136 241.039 80.4374C215.81 83.0987 192.163 85.0574 166.967 85.5319C165.875 85.5524 164.781 85.5723 163.687 85.5923C140.084 86.0221 116.081 86.4592 92.989 93.7554C79.7337 97.9441 67.4604 103.813 55.4589 110.084C51.5133 112.146 47.5955 114.252 43.6816 116.356C35.6975 120.648 27.7299 124.931 19.5765 128.81C-15.0457 145.284 -49.5049 147.401 -84.3608 146.485C-93.6417 146.241 -102.948 145.782 -112.293 145.322C-138.059 144.052 -164.117 142.768 -190.733 145.93L-190.792 145.434C-164.131 142.266 -138.011 143.553 -112.232 144.824C-102.896 145.284 -93.6041 145.742 -84.3476 145.985C-49.5183 146.901 -15.1538 144.782 19.3616 128.359C27.5043 124.484 35.4527 120.212 43.4303 115.923C47.3468 113.818 51.2704 111.709 55.2274 109.641C67.2375 103.366 79.5413 97.4806 92.8384 93.2787C116.002 85.9599 140.071 85.5219 163.657 85.0927C164.758 85.0727 165.858 85.0527 166.957 85.032C192.134 84.5579 215.765 82.6007 240.987 79.9402C264.996 77.4088 285.689 80.6695 307.306 84.0758C312.31 84.8643 317.364 85.6606 322.52 86.3947C360.7 91.83 384.936 86.4678 422.991 72.8549C444.732 65.0773 466.276 56.7663 487.839 48.4486C530.064 32.16 572.355 15.8459 616.314 3.46292L616.449 3.94419C572.512 16.3212 530.26 32.6202 488.049 48.9035C466.482 57.2234 444.925 65.5392 423.159 73.3256L423.075 73.0902L423.159 73.3256Z" fill="#1F2937" fill-opacity="0.5"/>
</g>
</g>
<defs>
<filter id="filter0_d_60_774" x="0" y="0" width="438" height="309" filterUnits="userSpaceOnUse" color-interpolation-filters="sRGB">
<feFlood flood-opacity="0" result="BackgroundImageFix"/>
<feColorMatrix in="SourceAlpha" type="matrix" values="0 0 0 0 0 0 0 0 0 0 0 0 0 0 0 0 0 0 127 0" result="hardAlpha"/>
<feOffset dy="3"/>
<feGaussianBlur stdDeviation="2"/>
<feComposite in2="hardAlpha" operator="out"/>
<feColorMatrix type="matrix" values="0 0 0 0 0 0 0 0 0 0 0 0 0 0 0 0 0 0 0.03 0"/>
<feBlend mode="normal" in2="BackgroundImageFix" result="effect1_dropShadow_60_774"/>
<feBlend mode="normal" in="SourceGraphic" in2="effect1_dropShadow_60_774" result="shape"/>
</filter>
<clipPath id="clip0_60_774">
<rect width="430" height="301" fill="white" transform="translate(4 1)"/>
</clipPath>
</defs>
</svg>
