<svg width="28" height="28" viewBox="0 0 28 28" fill="none" xmlns="http://www.w3.org/2000/svg">
<path d="M22.4 14.2054C22.4 13.6267 22.344 13.0294 22.2506 12.4694H14.168V15.7734H18.7973C18.6106 16.8374 17.9946 17.7707 17.08 18.368L19.8426 20.5147C21.4666 19.0027 22.4 16.8 22.4 14.2054Z" fill="#4280EF"/>
<path d="M14.168 22.5679C16.4826 22.5679 18.424 21.8026 19.8426 20.4959L17.08 18.3679C16.3146 18.8906 15.3253 19.1893 14.168 19.1893C11.928 19.1893 10.0426 17.6773 9.35198 15.6613L6.51465 17.8453C7.97065 20.7386 10.92 22.5679 14.168 22.5679Z" fill="#34A353"/>
<path d="M9.35183 15.6427C8.99716 14.5787 8.99716 13.4213 9.35183 12.3573L6.51449 10.1547C5.30116 12.5813 5.30116 15.4373 6.51449 17.8453L9.35183 15.6427Z" fill="#F6B704"/>
<path d="M14.168 8.8293C15.3813 8.81063 16.576 9.2773 17.4533 10.1173L19.8986 7.6533C18.3493 6.1973 16.296 5.4133 14.168 5.43197C10.92 5.43197 7.97065 7.2613 6.51465 10.1546L9.35198 12.3573C10.0426 10.3226 11.928 8.8293 14.168 8.8293Z" fill="#E54335"/>
</svg>
