<svg width="86" height="22" viewBox="0 0 86 22" fill="none" xmlns="http://www.w3.org/2000/svg">
<path d="M0.803681 11.8964C0.803681 10.2078 1.16899 8.70602 1.89961 7.39091C2.63023 6.05955 3.64498 5.02857 4.94386 4.29795C6.25897 3.55109 7.74457 3.17767 9.40064 3.17767C11.4301 3.17767 13.1674 3.71345 14.6124 4.78503C16.0574 5.8566 17.0234 7.31784 17.5105 9.16875H12.932C12.591 8.45436 12.1039 7.91046 11.4707 7.53703C10.8538 7.1636 10.1475 6.97689 9.35193 6.97689C8.06929 6.97689 7.03018 7.42338 6.23462 8.31636C5.43906 9.20934 5.04127 10.4027 5.04127 11.8964C5.04127 13.3901 5.43906 14.5834 6.23462 15.4764C7.03018 16.3694 8.06929 16.8159 9.35193 16.8159C10.1475 16.8159 10.8538 16.6292 11.4707 16.2558C12.1039 15.8823 12.591 15.3384 12.932 14.624H17.5105C17.0234 16.4749 16.0574 17.9362 14.6124 19.0078C13.1674 20.0631 11.4301 20.5908 9.40064 20.5908C7.74457 20.5908 6.25897 20.2255 4.94386 19.4948C3.64498 18.748 2.63023 17.717 1.89961 16.4019C1.16899 15.0868 0.803681 13.5849 0.803681 11.8964ZM41.9001 20.469L37.7599 14.7702V20.469H33.5954V2.44705H37.7599V12.4078L41.8757 6.87947H47.0144L41.3643 13.6986L47.0631 20.469H41.9001ZM47.335 13.6499C47.335 12.2536 47.5948 11.0278 48.1143 9.97243C48.6501 8.91709 49.3726 8.10529 50.2818 7.53703C51.1911 6.96877 52.2058 6.68464 53.3261 6.68464C54.284 6.68464 55.1202 6.87947 55.8346 7.26913C56.5652 7.6588 57.1253 8.17023 57.515 8.80344V6.87947H61.6795V20.469H57.515V18.545C57.1091 19.1782 56.5408 19.6897 55.8102 20.0793C55.0958 20.469 54.2597 20.6638 53.3017 20.6638C52.1977 20.6638 51.1911 20.3797 50.2818 19.8114C49.3726 19.2269 48.6501 18.407 48.1143 17.3517C47.5948 16.2801 47.335 15.0462 47.335 13.6499ZM57.515 13.6742C57.515 12.6351 57.2227 11.8152 56.6382 11.2145C56.07 10.6137 55.3718 10.3134 54.5438 10.3134C53.7158 10.3134 53.0095 10.6137 52.425 11.2145C51.8567 11.799 51.5726 12.6108 51.5726 13.6499C51.5726 14.689 51.8567 15.517 52.425 16.134C53.0095 16.7347 53.7158 17.0351 54.5438 17.0351C55.3718 17.0351 56.07 16.7347 56.6382 16.134C57.2227 15.5333 57.515 14.7133 57.515 13.6742ZM66.2997 5.46694C65.5691 5.46694 64.9684 5.25587 64.4975 4.83374C64.0429 4.39536 63.8156 3.85958 63.8156 3.22637C63.8156 2.57693 64.0429 2.04115 64.4975 1.61901C64.9684 1.18064 65.5691 0.961452 66.2997 0.961452C67.0141 0.961452 67.5986 1.18064 68.0532 1.61901C68.5241 2.04115 68.7595 2.57693 68.7595 3.22637C68.7595 3.85958 68.5241 4.39536 68.0532 4.83374C67.5986 5.25587 67.0141 5.46694 66.2997 5.46694ZM68.3698 6.87947V20.469H64.2053V6.87947H68.3698ZM79.1811 6.73335C80.7722 6.73335 82.0386 7.2529 82.9803 8.292C83.9382 9.31487 84.4172 10.7274 84.4172 12.5296V20.469H80.277V13.0897C80.277 12.1805 80.0416 11.4743 79.5707 10.9709C79.0999 10.4676 78.4667 10.216 77.6711 10.216C76.8756 10.216 76.2424 10.4676 75.7715 10.9709C75.3007 11.4743 75.0653 12.1805 75.0653 13.0897V20.469H70.9007V6.87947H75.0653V8.68167C75.4874 8.08093 76.0557 7.61009 76.77 7.26913C77.4844 6.91194 78.2881 6.73335 79.1811 6.73335Z" fill="#00A3FF"/>
<path d="M19.5972 6.61726C19.5972 5.72407 20.3212 5 21.2144 5H28.6348C29.528 5 30.252 5.72407 30.252 6.61726C30.252 7.51044 29.528 8.23451 28.6348 8.23451H21.2144C20.3212 8.23451 19.5972 7.51044 19.5972 6.61726Z" fill="#00A3FF"/>
<path d="M19.5972 12.6106C19.5972 11.77 20.2786 11.0885 21.1193 11.0885H26.637C27.4776 11.0885 28.1591 11.77 28.1591 12.6106C28.1591 13.4513 27.4776 14.1327 26.637 14.1327H21.1193C20.2786 14.1327 19.5972 13.4513 19.5972 12.6106Z" fill="#00A3FF"/>
<path d="M19.5972 18.604C19.5972 17.7108 20.3212 16.9867 21.2144 16.9867H28.6348C29.528 16.9867 30.252 17.7108 30.252 18.604C30.252 19.4972 29.528 20.2212 28.6348 20.2212H21.2144C20.3212 20.2212 19.5972 19.4972 19.5972 18.604Z" fill="#00A3FF"/>
</svg>
